<svg width="15" height="15" viewBox="0 0 18 18" fill="none" xmlns="http://www.w3.org/2000/svg">
  <path
    d="M11.71 11.5H12.2922L16.3856 15.6127L16.3865 15.6136C16.6012 15.8283 16.6012 16.1817 16.3865 16.3965C16.1717 16.6112 15.8183 16.6112 15.6036 16.3965L11.5 12.2929V11.71V11.5082L11.3599 11.3629L11.2786 11.2786L11.3629 11.3599L11.5082 11.5H11.71ZM11.0504 10.4046L10.7523 10.7523L10.4046 11.0504C9.11124 12.159 7.3493 12.731 5.47324 12.417C2.91101 11.9837 0.859607 9.83935 0.54637 7.25974L0.546279 7.25901C0.0659599 3.35179 3.35179 0.0659599 7.25901 0.54628L7.25974 0.546369C9.83935 0.859607 11.9837 2.91101 12.417 5.47324C12.731 7.3493 12.159 9.11124 11.0504 10.4046ZM1.50002 6.50002C1.50002 9.26616 3.73387 11.5 6.50002 11.5C9.26616 11.5 11.5 9.26616 11.5 6.50002C11.5 3.73387 9.26616 1.50002 6.50002 1.50002C3.73387 1.50002 1.50002 3.73387 1.50002 6.50002Z"
    fill="#64748B" stroke="#64748B" />
</svg>