<svg viewBox="0 0 20 24" xmlns="http://www.w3.org/2000/svg">
  <path
    d="M19.2625 6.7625L13.225 0.725C12.7625 0.2625 12.125 0 11.4625 0H2.5C1.125 0 0 1.125 0 2.5V22.5C0 23.875 1.125 25 2.5 25H17.5C18.875 25 20 23.875 20 22.5V8.5375C20 7.875 19.7375 7.2375 19.2625 6.7625ZM14.675 20.925C14.1875 21.4125 13.4 21.4125 12.9125 20.925L11.4375 19.45C9.775 20.3375 7.675 20.1125 6.275 18.7125C4.375 16.8125 4.5875 13.6125 6.9 12C8.35 10.9875 10.375 10.9875 11.8375 12C13.775 13.35 14.2125 15.8 13.2 17.6875L14.675 19.1625C15.1625 19.65 15.1625 20.4375 14.675 20.925ZM12.5 8.75C11.8125 8.75 11.25 8.1875 11.25 7.5V1.875L18.125 8.75H12.5Z" />
</svg>